# xmcd
#
# Track frame offsets:
#	150
#	15075
#	30352
#	43407
#	53792
#	71905
#	88387
#	105429
#	122000
#	139892
#	157502
#	172447
#	184697
#	205972
#
# Disc length: 3038 seconds
#
# Revision: 3
# Processed by: cddbd v1.5.1PL0 Copyright (c) Steve Scherf et al.
# Submitted via: EasyCDDAExtractor 6.2.0.3
#
DISCID=be0bdc0e
DTITLE=Chitãozinho and Xororó
DYEAR=1998
DGENRE=Country
TTITLE0=Pé na estrada
TTITLE1=Galopeira
TTITLE2=Fio de cabelo
TTITLE3=60 dias apaixonado
TTITLE4=Não desligue o rádio
TTITLE5=Fogão de lenha
TTITLE6=Obras de poeta
TTITLE7=Terra tombada
TTITLE8=Contratempos
TTITLE9=Adeus solidão
TTITLE10=Tenho cíume de tudo
TTITLE11=Amante amada
TTITLE12=Falando às paredes
TTITLE13=De coração para coração
EXTD=ID3G:   2
EXTT0=
EXTT1=
EXTT2=
EXTT3=
EXTT4=
EXTT5=
EXTT6=
EXTT7=
EXTT8=
EXTT9=
EXTT10=
EXTT11=
EXTT12=
EXTT13=
PLAYORDER=
